<svg xmlns="http://www.w3.org/2000/svg" xmlns:xlink="http://www.w3.org/1999/xlink"><symbol id="all-include" viewBox="0 0 38 21">
<path d="M28.7534 2.21506L26.4398 0L16.0732 9.93254L18.3868 12.1476L28.7534 2.21506ZM35.6945 0L18.3787 16.5699L11.5602 10.0421L9.24656 12.2572L18.3787 21L38 2.21506L35.6945 0ZM0 12.2572L9.1321 21L11.4458 18.7849L2.31368 10.0421L0 12.2572Z" fill="#011C40"/>
</symbol><symbol id="close" viewBox="0 0 15 15">
<path d="M1 1L7.5 7.5M14 14L7.5 7.5M7.5 7.5L14 1L1 14" stroke="#011C40" stroke-width="2"/>
</symbol><symbol id="facebook" viewBox="0 0 11 20">
<path d="M7.31035 11.5H9.92118L10.9655 7.5H7.31035V5.5C7.31035 4.47 7.31035 3.5 9.39902 3.5H10.9655V0.14C10.6251 0.0970001 9.33949 0 7.98185 0C5.14648 0 3.13301 1.657 3.13301 4.7V7.5H0V11.5H3.13301V20H7.31035V11.5Z" fill="#F9FBFD"/>
</symbol><symbol id="instagram" viewBox="0 0 21 20">
<path d="M10.7357 0C13.3839 0 13.7144 0.00999994 14.7534 0.0599999C15.7915 0.11 16.4982 0.277 17.12 0.525C17.7633 0.779 18.3053 1.123 18.8472 1.678C19.3428 2.1779 19.7264 2.78259 19.9711 3.45C20.2118 4.087 20.3756 4.813 20.4243 5.878C20.4701 6.944 20.4828 7.283 20.4828 10C20.4828 12.717 20.473 13.056 20.4243 14.122C20.3756 15.187 20.2118 15.912 19.9711 16.55C19.7271 17.2178 19.3435 17.8226 18.8472 18.322C18.3598 18.8303 17.7705 19.2238 17.12 19.475C16.4991 19.722 15.7915 19.89 14.7534 19.94C13.7144 19.987 13.3839 20 10.7357 20C8.08736 20 7.75693 19.99 6.71789 19.94C5.67982 19.89 4.97315 19.722 4.35128 19.475C3.70049 19.2245 3.11099 18.8309 2.62409 18.322C2.12836 17.8222 1.74484 17.2175 1.50025 16.55C1.25852 15.913 1.09574 15.187 1.04701 14.122C1.0012 13.056 0.988525 12.717 0.988525 10C0.988525 7.283 0.998272 6.944 1.04701 5.878C1.09574 4.812 1.25852 4.088 1.50025 3.45C1.74416 2.78218 2.12777 2.17732 2.62409 1.678C3.11113 1.16923 3.70059 0.775729 4.35128 0.525C4.97315 0.277 5.67884 0.11 6.71789 0.0599999C7.75693 0.0129999 8.08736 0 10.7357 0ZM10.7357 5C9.4431 5 8.20349 5.52678 7.28952 6.46447C6.37555 7.40215 5.86209 8.67392 5.86209 10C5.86209 11.3261 6.37555 12.5979 7.28952 13.5355C8.20349 14.4732 9.4431 15 10.7357 15C12.0282 15 13.2678 14.4732 14.1818 13.5355C15.0958 12.5979 15.6092 11.3261 15.6092 10C15.6092 8.67392 15.0958 7.40215 14.1818 6.46447C13.2678 5.52678 12.0282 5 10.7357 5ZM17.0713 4.75C17.0713 4.41848 16.9429 4.10054 16.7144 3.86612C16.4859 3.6317 16.176 3.5 15.8529 3.5C15.5298 3.5 15.2199 3.6317 14.9914 3.86612C14.7629 4.10054 14.6345 4.41848 14.6345 4.75C14.6345 5.08152 14.7629 5.39946 14.9914 5.63388C15.2199 5.8683 15.5298 6 15.8529 6C16.176 6 16.4859 5.8683 16.7144 5.63388C16.9429 5.39946 17.0713 5.08152 17.0713 4.75ZM10.7357 7C11.5112 7 12.2549 7.31607 12.8033 7.87868C13.3517 8.44129 13.6598 9.20435 13.6598 10C13.6598 10.7956 13.3517 11.5587 12.8033 12.1213C12.2549 12.6839 11.5112 13 10.7357 13C9.96012 13 9.21636 12.6839 8.66797 12.1213C8.11959 11.5587 7.81151 10.7956 7.81151 10C7.81151 9.20435 8.11959 8.44129 8.66797 7.87868C9.21636 7.31607 9.96012 7 10.7357 7Z" fill="#F9FBFD"/>
</symbol><symbol id="logo-blue" viewBox="0 0 42 22">
<path fill-rule="evenodd" clip-rule="evenodd" d="M0.54211 18.0197L8.80358 7.26166L11.0637 8.42713L16.4415 0L19.7928 3.8551L21.0399 2.86887L25.872 8.78584L29.3013 4.84111L38.8875 18.0197L29.652 6.81358L28.249 11.5202L29.535 15.2407L21.2736 4.25849L21.1842 8.00563L25.872 18.0197L17.1038 2.51017L19.6369 10.8926L16.0909 2.73432L14.1424 8.15829L14.5319 4.61695L9.66076 17.3922L10.2452 12.0132L8.21887 9.86169L0.54211 18.0197Z" fill="#011C40"/>
<path fill-rule="evenodd" clip-rule="evenodd" d="M41.6649 19.7024C28.5846 9.51096 8.22544 23.522 0 18.1188C9.04339 25.7756 30.1812 12.832 41.6649 19.7024Z" fill="#011C40"/>
<path fill-rule="evenodd" clip-rule="evenodd" d="M42 20.5038C31.7374 14.1941 16.4741 22.9749 8.65134 20.9415C17.128 24.9111 32.9089 16.1156 42 20.5038Z" fill="#011C40"/>
</symbol><symbol id="logo" viewBox="0 0 70 38">
<path fill-rule="evenodd" clip-rule="evenodd" d="M0.903517 31.125L14.6726 12.5429L18.4395 14.556L27.4026 0L32.9879 6.65881L35.0665 4.95532L43.1199 15.1755L48.8355 8.36191L64.8126 31.125L49.42 11.7689L47.0817 19.8984L49.225 26.3249L35.456 7.35558L35.3069 13.8279L43.1199 31.125L28.5064 4.33574L32.7282 18.8145L26.8181 4.72292L23.5706 14.0916L24.2198 7.97472L16.1013 30.0411L17.0753 20.75L13.6981 17.0338L0.903517 31.125Z" fill="#F9FBFD"/>
<path fill-rule="evenodd" clip-rule="evenodd" d="M69.4414 34.0314C47.641 16.428 13.7091 40.6289 0 31.2961C15.0723 44.5215 50.3019 22.1644 69.4414 34.0314Z" fill="#F9FBFD"/>
<path fill-rule="evenodd" clip-rule="evenodd" d="M70 35.4157C52.8956 24.5171 27.4568 39.6838 14.4189 36.1717C28.5467 43.0283 54.8482 27.8361 70 35.4157Z" fill="#F9FBFD"/>
</symbol><symbol id="menu-burger" viewBox="0 0 24 14">
<path d="M0 1H24M0 7H24M0 13H24" stroke="#F9FBFD" stroke-width="2"/>
</symbol><symbol id="ship" viewBox="0 0 27 32">
<path d="M4.40549 16.3962L13.2165 9.93576C13.4162 9.8063 13.6711 9.8063 13.8708 9.93576L22.7254 16.3962V8.68818C22.7739 7.6312 21.9743 6.7343 20.9396 6.68484C20.9242 6.68407 20.9089 6.68356 20.8934 6.68322H6.23749C5.20189 6.70667 4.38094 7.58319 4.4039 8.6411C4.40423 8.6568 4.40473 8.67249 4.40549 8.68818V16.3962Z" fill="#011C40"/>
<path d="M15.7464 0H11.3845V5.34662H15.7464V0Z" fill="#011C40"/>
<path d="M24.2956 30.1638L27 21.03L23.2052 18.3122L22.9434 18.1785L14.0016 11.8072V30.6094H13.5217L12.6929 30.5649V11.8072L0 21.03L2.79163 30.1193L4.4039 31.9904C4.4039 31.9904 5.7624 31.9904 7.15817 31.9904C7.15817 31.9904 12.2467 31.997 13.5218 31.9904C14.8198 32.012 17.1251 31.9904 17.1251 31.9904H22.8127L24.2956 30.1638Z" fill="#011C40"/>
</symbol><symbol id="tour" viewBox="0 0 42 15">
<path d="M39.555 12.056L1.57287 8.06841C1.28101 8.03777 1.0843 8.33255 1.23548 8.56735C3.66312 12.3403 9.41009 15 16.1 15H38.7584C38.9124 15 39.0475 14.9068 39.093 14.7698L39.8504 12.476C39.9148 12.281 39.7727 12.0788 39.555 12.056Z" fill="#011C40"/>
<path d="M41.8896 5.51766C41.7782 5.35594 41.597 5.24833 41.3933 5.22287L30.8932 3.91844C30.5145 3.87213 30.1582 4.1219 30.1065 4.47868C30.0547 4.83545 30.3248 5.16418 30.7078 5.21172L31.8964 5.35915C32.07 5.3807 32.2002 5.51896 32.2002 5.68199V6.69033C32.2002 6.884 32.0195 7.03534 31.8131 7.01447L29.0131 6.73466C28.8353 6.71769 28.7002 6.57744 28.7002 6.41113V3.55647C28.7002 3.49189 28.7205 3.42929 28.759 3.37579L29.9826 1.66575C30.1226 1.47009 30.1387 1.21962 30.0253 1.01028C29.9112 0.800253 29.6852 0.663291 29.4332 0.652208L14.7331 3.06688e-05C14.4972 -0.00195651 14.2683 0.0926639 14.1304 0.272657C14.1304 0.272657 11.3332 3.93541 10.72 4.74152C10.6465 4.83805 10.5233 4.88956 10.3973 4.87649L0.774214 3.91653C0.575451 3.89697 0.379396 3.95635 0.231739 4.07956C0.0847386 4.20353 0 4.37962 0 4.56481C0 5.19291 0.0875277 5.80856 0.252739 6.40601C0.289161 6.53778 0.412372 6.63362 0.55724 6.64929L40.1052 10.8012C40.2725 10.8188 40.4293 10.7229 40.479 10.5729L41.9694 6.06093C42.0295 5.87773 42.0001 5.67878 41.8896 5.51766ZM20.2007 1.90513L19.6547 5.46745C19.6281 5.64026 19.4635 5.76354 19.2767 5.74596C17.911 5.61748 12.7799 5.11465 12.7799 5.11465C12.5139 5.0879 12.3768 4.80419 12.5321 4.60073L14.9366 1.46428C15.0059 1.37424 15.1193 1.32273 15.2383 1.328L19.871 1.53345C20.0768 1.54254 20.23 1.71466 20.2007 1.90513ZM27.7894 2.3806L27.3589 2.98065C27.3204 3.03415 27.3001 3.09736 27.3001 3.16194V6.20187C27.3001 6.39554 27.1195 6.54687 26.913 6.52601L21.3577 5.97166C21.161 5.95209 21.0203 5.78379 21.0483 5.6012L21.6146 1.9078C21.6398 1.74149 21.7973 1.62019 21.9779 1.62799L27.5149 1.87386C27.7866 1.88556 27.9406 2.16927 27.7894 2.3806ZM36.4001 7.1097C36.4001 7.30337 36.2195 7.45471 36.013 7.43384C36.013 7.43384 34.5598 7.28121 33.9088 7.20952C33.7324 7.19064 33.6001 7.051 33.6001 6.88599V5.94292C33.6001 5.74596 33.7863 5.59333 33.9963 5.61939L36.0963 5.88025C36.2699 5.90241 36.4001 6.04068 36.4001 6.20378V7.1097ZM40.2662 6.78228L40.0065 7.56752C39.9576 7.71625 39.8014 7.81209 39.6348 7.79581L38.1123 7.64387C37.9352 7.62629 37.8001 7.48604 37.8001 7.31973V6.46532C37.8001 6.26836 37.9863 6.11573 38.1963 6.14179L39.9778 6.3629C40.192 6.38966 40.3299 6.58929 40.2662 6.78228Z" fill="#011C40"/>
</symbol><symbol id="twitter" viewBox="0 0 20 17">
<path d="M19.999 2.42905C19.2689 2.76016 18.4947 2.97761 17.7019 3.07421C18.5375 2.56184 19.1629 1.75547 19.4616 0.805372C18.6774 1.28385 17.8176 1.61917 16.9215 1.80056C16.3196 1.14028 15.5217 0.702385 14.652 0.554941C13.7823 0.407498 12.8895 0.558771 12.1123 0.985244C11.3351 1.41172 10.7171 2.0895 10.3543 2.91321C9.99163 3.73692 9.90451 4.66042 10.1065 5.54013C8.51623 5.45841 6.96046 5.03471 5.54024 4.29654C4.12002 3.55838 2.86709 2.52225 1.8628 1.25541C1.50731 1.8814 1.32051 2.59302 1.3215 3.31737C1.3215 4.73907 2.02729 5.99507 3.10032 6.73043C2.46531 6.70994 1.84428 6.53412 1.28899 6.21764V6.26863C1.28918 7.21548 1.60876 8.13313 2.19355 8.86599C2.77834 9.59884 3.59234 10.1018 4.49754 10.2896C3.90806 10.4534 3.28997 10.4775 2.69004 10.3602C2.94526 11.1752 3.4427 11.888 4.1127 12.3987C4.78271 12.9095 5.59173 13.1926 6.4265 13.2085C5.59685 13.8765 4.6469 14.3703 3.63098 14.6617C2.61505 14.9531 1.55306 15.0364 0.505737 14.9067C2.33399 16.1121 4.46225 16.7521 6.63594 16.75C13.9931 16.75 18.0165 10.5014 18.0165 5.08224C18.0165 4.90575 18.0117 4.72731 18.0041 4.55278C18.7872 3.9725 19.4631 3.25366 20 2.43003L19.999 2.42905Z" fill="#F9FBFD"/>
</symbol></svg>